<svg xmlns="http://www.w3.org/2000/svg" width="16.261" height="17" viewBox="0 0 16.261 17"><path d="M7.957,4v.739H5V21H21.261V4.739H18.3V4H16.826v.739H9.435V4ZM6.478,6.217H7.957v.739H9.435V6.217h7.391v.739H18.3V6.217h1.478V7.7H6.478Zm0,2.957h13.3V19.522H6.478Zm4.435,1.478V12.13h1.478V10.652Zm2.957,0V12.13h1.478V10.652Zm2.957,0V12.13H18.3V10.652Zm-8.87,2.957v1.478H9.435V13.609Zm2.957,0v1.478h1.478V13.609Zm2.957,0v1.478h1.478V13.609Zm2.957,0v1.478H18.3V13.609Zm-8.87,2.957v1.478H9.435V16.565Zm2.957,0v1.478h1.478V16.565Zm2.957,0v1.478h1.478V16.565Z" transform="translate(-5 -4)" fill="#888caa"/></svg>