<svg xmlns="http://www.w3.org/2000/svg" width="10.802" height="17" viewBox="0 0 10.802 17"><path d="M15.677,12.079c0-1.4,2.274-1.522,2.274-4.258a3.611,3.611,0,0,0-1.519-3.016H17.8L19.177,4H14.731C10.207,4,9.482,7.165,9.482,8.214a3.554,3.554,0,0,0,3.683,3.506,6.55,6.55,0,0,0,.714-.042,2.65,2.65,0,0,0-.219.874,2.725,2.725,0,0,0,.647,1.522c-2.692-.025-5.932,1.143-5.932,3.741,0,.949.816,3.185,4.651,3.185,4.375,0,5.7-2.7,5.7-4.214C18.723,13.895,15.677,13.416,15.677,12.079Zm-1.486-.966c-1.53,0-2.822-1.926-2.822-3.984,0-.611.293-2.388,1.987-2.388,2.18,0,2.712,3.232,2.712,4.112C16.067,9.058,16.211,11.114,14.191,11.114Zm-.105,8.951c-1.4,0-3.824-.6-3.824-2.723,0-.736.429-2.659,4.153-2.659.191,0,.357.008.5.022.775.578,2.38,1.414,2.38,2.952C17.293,18.355,16.878,20.065,14.086,20.065Z" transform="translate(-8.375 -4)" fill="#888caa"/></svg>