<svg xmlns="http://www.w3.org/2000/svg" width="16.433" height="17" viewBox="0 0 16.433 17"><path d="M27.674,7.843c0-.115-.052-.858-.466-.858-.621,0-.777,1.2-.777,1.374,0,.057.052.973.466.973.568,0,.776-1.2.776-1.488Zm3.362,0c0-.115-.052-.858-.466-.858-.62,0-.775,1.2-.775,1.374,0,.057.051.973.465.973.568,0,.776-1.2.776-1.488ZM19.845.768a2.057,2.057,0,0,0-2.053,2.06V13.647a2.057,2.057,0,0,0,2.053,2.06H25.5l2.053,2.061V15.707h4.623a2.057,2.057,0,0,0,2.054-2.06V2.828A2.057,2.057,0,0,0,32.171.768H19.845Zm8.76,7.019c0,.916-.517,2.575-1.706,2.575a1.748,1.748,0,0,1-.423-.1,1.518,1.518,0,0,1-.87-1.1,4.424,4.424,0,0,1-.051-.678,6.309,6.309,0,0,1,.051-.754c.259-1.259.724-1.775,1.6-1.775C28.191,5.954,28.605,6.928,28.605,7.787Zm-3.02-2a18.114,18.114,0,0,0-.724,3.548V10.59c-.043.2-.069.4-.363.4-.775,0-1.478-2.518-1.53-2.691-.1.115-1.035,2.691-1.6,2.691-.413,0-.724-1.89-.775-2.061-.155-.916-.433-2.619-.433-2.734,0-.344.019-.644.433-.644.1,0,.359.1.394.285.194,1.031.277,2,.485,3.092.031.049.025.117.076.173C21.6,8.933,22.657,6.3,23.123,6.3c.375,0,.505.741.558,1.028.1.343.218.918.373,1.376,0-.229.207-3.377,1.087-3.377.309,0,.444.115.444.458Zm6.381,2c0,.916-.517,2.575-1.706,2.575a1.76,1.76,0,0,1-.423-.1,1.518,1.518,0,0,1-.869-1.1,3.561,3.561,0,0,1-.065-.68,4.966,4.966,0,0,1,.065-.751c.259-1.259.723-1.775,1.6-1.775.983,0,1.4.973,1.4,1.832Z" transform="translate(-17.792 -0.768)" fill="#888caa"/></svg>